<?xml version="1.0" encoding="utf-8"?>
<!-- Generator: Adobe Illustrator 27.2.0, SVG Export Plug-In . SVG Version: 6.00 Build 0)  -->
<svg version="1.1" id="Capa_1" xmlns="http://www.w3.org/2000/svg" xmlns:xlink="http://www.w3.org/1999/xlink" x="0px" y="0px"
	 viewBox="0 0 500 500" style="enable-background:new 0 0 500 500;" xml:space="preserve">
<style type="text/css">
	.st0{display:none;}
	.st1{fill:none;}
	.st2{fill:#90E043;}
</style>
<g id="Capa_1_00000058588271766905241790000001243337939119445148_" class="st0">
	
		<image style="display:inline;overflow:visible;enable-background:new    ;" width="348" height="348" xlink:href="DC1C2D67.jpg"  transform="matrix(0 0.4501 -0.4501 0 301.9643 88.3058)">
	</image>
</g>
<line class="st1" x1="311.5" y1="268.7" x2="310.3" y2="267"/>
<line class="st1" x1="285.9" y1="267" x2="285.6" y2="267.7"/>
<g>
	<g>
		<path class="st2" d="M249.6,306.3L249.6,306.3c-29.8,0-58.2-6.5-84.4-18.4c-20.3-9-39.1-21.4-56.2-36.4
			c-31.5-27.4-56.8-64-73-106.4c-11.8-30.3-18.8-63.4-20.3-98.3c17.7,0.1,35.1,2.4,51.7,6.9c26.4,6.9,51.1,19,73.1,35.4
			C203.1,135.2,245.7,214.8,249.6,306.3z"/>
		<path class="st2" d="M484.3,46.9c-1.6,36.7-9.3,71.4-22.1,102.8c-16.7,41.2-42,76.7-73,103.4c-17.3,14.8-36.3,27-56.7,35.8
			c-25.6,11.3-53.2,17.4-82.2,17.5c3.8-90.5,45.4-169.3,106.8-215.6c22.7-17.2,48.1-29.9,75.5-37.1C449.2,49.2,466.5,47,484.3,46.9z
			"/>
		<g>
			<path d="M389.2,291.5v161.6h73V216.6C442.5,246.4,417.7,271.9,389.2,291.5z M36,213.1v240.1h73V289.8
				C80.4,269.8,55.5,243.6,36,213.1z"/>
		</g>
	</g>
	<path class="st1" d="M91.5,283.7c15,6.8,31.2,10.5,48.3,10.6l0.2,0.4l0.2-0.4c16.6-0.1,32.4-3.6,47.1-10 M17.5,202
		c9.3,24.2,23.8,45.2,41.8,60.9"/>
</g>
</svg>
