<?xml version="1.0" encoding="utf-8"?>
<!-- Generator: Adobe Illustrator 27.2.0, SVG Export Plug-In . SVG Version: 6.00 Build 0)  -->
<svg version="1.1" id="Capa_1" xmlns="http://www.w3.org/2000/svg" xmlns:xlink="http://www.w3.org/1999/xlink" x="0px" y="0px"
	 viewBox="0 0 1100 360" style="enable-background:new 0 0 1100 360;" xml:space="preserve">
<style type="text/css">
	.st0{fill:none;}
	.st1{fill:#7E5E1A;}
	.st2{fill:#90E043;}
</style>
<g>
	<path d="M248.7,228.47c-9.47,0-17.86-2.02-25.18-6.06c-7.32-4.04-13.06-9.72-17.23-17.04c-4.17-7.32-6.25-15.77-6.25-25.37
		c0-9.72,2.05-18.37,6.15-25.94c4.1-7.57,9.78-13.47,17.04-17.7c7.26-4.23,15.81-6.34,25.66-6.34c9.21,0,17.35,2.02,24.43,6.06
		c7.07,4.04,12.59,9.56,16.57,16.57c3.98,7.01,5.96,14.8,5.96,23.38c0,1.39-0.03,2.84-0.1,4.36c-0.07,1.51-0.16,3.09-0.28,4.73
		h-71.38c0.5,7.32,3.06,13.07,7.67,17.23c4.61,4.17,10.19,6.25,16.76,6.25c4.92,0,9.06-1.1,12.4-3.31c3.34-2.21,5.84-5.08,7.48-8.61
		H293c-1.77,5.93-4.7,11.33-8.8,16.19c-4.1,4.86-9.15,8.68-15.15,11.45C263.05,227.08,256.27,228.47,248.7,228.47z M248.89,149.7
		c-5.94,0-11.17,1.67-15.72,5.02c-4.54,3.35-7.45,8.43-8.71,15.24h46.77c-0.38-6.18-2.65-11.11-6.82-14.77
		C260.25,151.53,255.07,149.7,248.89,149.7z"/>
	<path d="M316.29,226.2v-93.91h21.4l1.89,15.9c2.9-5.55,7.1-9.97,12.59-13.25c5.49-3.28,11.96-4.92,19.41-4.92
		c11.61,0,20.64,3.66,27.08,10.98c6.44,7.32,9.66,18.05,9.66,32.19v53.01h-24.24v-50.74c0-8.08-1.64-14.26-4.92-18.56
		c-3.28-4.29-8.4-6.44-15.34-6.44c-6.82,0-12.4,2.4-16.76,7.2c-4.35,4.8-6.53,11.49-6.53,20.07v48.47H316.29z"/>
	<path d="M474.58,228.47c-8.84,0-16.73-2.15-23.67-6.44c-6.94-4.29-12.43-10.16-16.47-17.61c-4.04-7.45-6.06-15.91-6.06-25.37
		c0-9.47,2.02-17.89,6.06-25.28c4.03-7.38,9.53-13.19,16.47-17.42c6.94-4.23,14.83-6.34,23.67-6.34c7.07,0,13.25,1.33,18.55,3.98
		s9.59,6.38,12.87,11.17V89.87h24.24V226.2h-21.59l-2.65-13.44c-3.03,4.17-7.04,7.83-12.02,10.98
		C489,226.89,482.54,228.47,474.58,228.47z M479.69,207.26c7.83,0,14.23-2.62,19.22-7.86c4.99-5.24,7.48-11.96,7.48-20.17
		c0-8.2-2.49-14.93-7.48-20.17c-4.98-5.24-11.39-7.86-19.22-7.86c-7.7,0-14.08,2.59-19.13,7.76c-5.05,5.18-7.57,11.87-7.57,20.07
		c0,8.21,2.52,14.96,7.57,20.26C465.61,204.61,471.99,207.26,479.69,207.26z"/>
	<path d="M599.93,228.47c-9.09,0-17.26-2.08-24.52-6.25c-7.26-4.16-13-9.94-17.23-17.32c-4.23-7.38-6.34-15.93-6.34-25.66
		c0-9.72,2.15-18.27,6.44-25.66c4.29-7.38,10.06-13.16,17.32-17.32c7.26-4.17,15.43-6.25,24.52-6.25c8.96,0,17.07,2.08,24.33,6.25
		c7.26,4.17,13,9.94,17.23,17.32c4.23,7.39,6.34,15.94,6.34,25.66c0,9.72-2.12,18.27-6.34,25.66c-4.23,7.39-10.01,13.16-17.33,17.32
		C617.03,226.39,608.89,228.47,599.93,228.47z M599.93,207.45c6.31,0,11.8-2.36,16.48-7.1c4.67-4.74,7-11.77,7-21.11
		c0-9.34-2.34-16.38-7-21.11c-4.67-4.73-10.1-7.1-16.28-7.1c-6.44,0-11.96,2.37-16.57,7.1c-4.61,4.73-6.91,11.77-6.91,21.11
		c0,9.34,2.3,16.38,6.91,21.11C588.15,205.09,593.61,207.45,599.93,207.45z"/>
	<polygon class="st0" points="763.53,226.2 684.01,226.2 721.11,125.3 721.11,153.92 731.45,151.99 731.45,161.42 742.19,167.33 
		741.6,191.15 731.81,205.48 744.05,199.67 	"/>
	<polygon class="st1" points="785.85,226.2 763.53,226.2 744.05,199.67 731.81,205.48 741.6,191.15 742.19,167.33 731.45,161.42 
		731.45,151.99 721.11,153.92 721.11,125.3 684.01,226.2 661.65,226.2 710.11,93.65 737.39,93.65 	"/>
	<path d="M842.09,198.18c-4.54,0-8.78-0.5-12.69-1.51l-7.01,7c2.14,1.13,5.05,2.08,8.71,2.84c3.66,0.76,9.59,1.51,17.8,2.27
		c12.5,1.13,21.58,4.1,27.27,8.9c5.68,4.8,8.52,11.43,8.52,19.89c0,5.55-1.51,10.82-4.54,15.81c-3.03,4.99-7.7,9.02-14.01,12.12
		c-6.32,3.09-14.39,4.64-24.24,4.64c-13.38,0-24.17-2.5-32.38-7.48c-8.21-4.99-12.31-12.47-12.31-22.43
		c0-8.46,4.1-15.78,12.31-21.97c-2.53-1.13-4.7-2.33-6.53-3.59c-1.83-1.26-3.44-2.59-4.83-3.98v-4.35l16.47-17.42
		c-7.32-6.44-10.98-14.7-10.98-24.81c0-6.31,1.55-12.05,4.64-17.23c3.09-5.18,7.48-9.28,13.16-12.31
		c5.68-3.03,12.56-4.54,20.64-4.54c5.3,0,10.22,0.76,14.77,2.27h35.6v14.77l-16.1,1.14c2.52,4.8,3.79,10.1,3.79,15.91
		c0,6.31-1.51,12.06-4.54,17.23c-3.03,5.18-7.42,9.28-13.16,12.31C856.7,196.66,849.92,198.18,842.09,198.18z M819.37,237.75
		c0,4.67,2.18,8.18,6.53,10.51c4.35,2.34,9.68,3.51,16,3.51c6.06,0,10.98-1.23,14.77-3.69c3.79-2.47,5.68-5.78,5.68-9.94
		c0-3.41-1.23-6.25-3.69-8.52c-2.46-2.27-7.35-3.66-14.67-4.17c-5.18-0.38-9.97-0.94-14.39-1.7c-3.66,2.02-6.28,4.23-7.86,6.63
		C820.16,232.76,819.37,235.22,819.37,237.75z M842.09,179.62c4.92,0,8.99-1.33,12.21-3.98c3.22-2.65,4.83-6.44,4.83-11.36
		c0-4.92-1.61-8.71-4.83-11.36c-3.22-2.65-7.29-3.98-12.21-3.98c-5.18,0-9.34,1.33-12.5,3.98c-3.15,2.65-4.73,6.44-4.73,11.36
		c0,4.92,1.58,8.71,4.73,11.36C832.75,178.29,836.92,179.62,842.09,179.62z"/>
	<path d="M910.07,226.2v-93.91h21.59l2.27,17.61c3.41-6.06,8.05-10.89,13.92-14.49c5.87-3.6,12.78-5.4,20.73-5.4v25.56h-6.82
		c-5.3,0-10.03,0.82-14.2,2.46c-4.17,1.64-7.42,4.48-9.75,8.52c-2.34,4.04-3.51,9.66-3.51,16.85v42.79H910.07z"/>
	<path d="M1028.41,228.47c-9.09,0-17.26-2.08-24.52-6.25c-7.26-4.16-13-9.94-17.23-17.32c-4.23-7.38-6.34-15.93-6.34-25.66
		c0-9.72,2.15-18.27,6.44-25.66c4.29-7.38,10.06-13.16,17.32-17.32c7.26-4.17,15.43-6.25,24.52-6.25c8.96,0,17.07,2.08,24.33,6.25
		c7.26,4.17,13,9.94,17.23,17.32c4.23,7.39,6.34,15.94,6.34,25.66c0,9.72-2.12,18.27-6.34,25.66c-4.23,7.39-10.01,13.16-17.33,17.32
		C1045.51,226.39,1037.37,228.47,1028.41,228.47z M1028.41,207.45c6.31,0,11.8-2.36,16.48-7.1c4.67-4.74,7-11.77,7-21.11
		c0-9.34-2.34-16.38-7-21.11c-4.67-4.73-10.1-7.1-16.28-7.1c-6.44,0-11.96,2.37-16.57,7.1c-4.61,4.73-6.91,11.77-6.91,21.11
		c0,9.34,2.3,16.38,6.91,21.11C1016.63,205.09,1022.09,207.45,1028.41,207.45z"/>
	<path class="st2" d="M101.36,179.6v0.03c-9.92-0.03-19.38-2.19-28.1-6.17c-6.75-3-13.02-7.11-18.7-12.11
		c-10.47-9.14-18.89-21.31-24.31-35.41c-3.92-10.08-6.27-21.11-6.75-32.73c5.91,0.03,11.68,0.78,17.2,2.28
		c8.78,2.28,17,6.33,24.34,11.78C85.89,122.63,100.05,149.12,101.36,179.6z"/>
	<path class="st2" d="M179.48,93.22c-0.52,12.2-3.1,23.76-7.34,34.23c-5.55,13.71-13.97,25.52-24.31,34.43
		c-5.74,4.93-12.07,8.97-18.86,11.91c-8.52,3.75-17.72,5.81-27.38,5.84c1.27-30.12,15.11-56.36,35.57-71.79
		c7.57-5.71,16.02-9.95,25.13-12.34C167.8,94.01,173.57,93.26,179.48,93.22z"/>
	<line class="st0" x1="767.45" y1="231.55" x2="763.53" y2="226.2"/>
	<line class="st0" x1="684.01" y1="226.2" x2="683.16" y2="228.48"/>
	<g>
		<path d="M147.83,174.67v53.81h24.31v-78.74C165.58,159.66,157.32,168.15,147.83,174.67z M30.25,148.57v79.92h24.31v-54.36
			C45.04,167.43,36.75,158.72,30.25,148.57z"/>
	</g>
	<path class="st0" d="M73.26,173.47c8.71,3.98,18.18,6.13,28.1,6.17l0.13,0.23l0.1-0.23c9.66-0.03,18.86-2.09,27.38-5.84
		 M30.25,125.95c5.42,14.1,13.84,26.27,24.31,35.41"/>
</g>
</svg>
